<?xml version="1.0" encoding="UTF-8" standalone="no"?>
<!-- Generator: Adobe Illustrator 16.0.0, SVG Export Plug-In . SVG Version: 6.00 Build 0)  -->

<svg
   xmlns:dc="http://purl.org/dc/elements/1.1/"
   xmlns:cc="http://creativecommons.org/ns#"
   xmlns:rdf="http://www.w3.org/1999/02/22-rdf-syntax-ns#"
   xmlns:svg="http://www.w3.org/2000/svg"
   xmlns="http://www.w3.org/2000/svg"
   xmlns:sodipodi="http://sodipodi.sourceforge.net/DTD/sodipodi-0.dtd"
   xmlns:inkscape="http://www.inkscape.org/namespaces/inkscape"
   version="1.1"
   id="Layer_1"
   x="0px"
   y="0px"
   width="128px"
   height="128px"
   viewBox="0 0 128 128"
   enable-background="new 0 0 128 128"
   xml:space="preserve"
   inkscape:version="0.91 r13725"
   sodipodi:docname="Homee2.svg"><metadata
     id="metadata15"><rdf:RDF><cc:Work
         rdf:about=""><dc:format>image/svg+xml</dc:format><dc:type
           rdf:resource="http://purl.org/dc/dcmitype/StillImage" /><dc:title></dc:title></cc:Work></rdf:RDF></metadata><defs
     id="defs13" /><sodipodi:namedview
     pagecolor="#ffffff"
     bordercolor="#666666"
     borderopacity="1"
     objecttolerance="10"
     gridtolerance="10"
     guidetolerance="10"
     inkscape:pageopacity="0"
     inkscape:pageshadow="2"
     inkscape:window-width="798"
     inkscape:window-height="838"
     id="namedview11"
     showgrid="false"
     inkscape:zoom="1.84375"
     inkscape:cx="64"
     inkscape:cy="64"
     inkscape:window-x="793"
     inkscape:window-y="0"
     inkscape:window-maximized="0"
     inkscape:current-layer="Layer_1" /><g
     id="g3"
     style="fill:#ffffff"><g
       id="g5"
       style="fill:#ffffff"><path
         fill-rule="evenodd"
         clip-rule="evenodd"
         fill="#B0BEC5"
         d="M48,128h32V88H48V128z M56,112h8v-8h-8v-8h16v24H56V112z M56,56    H32v24h24V56z M48,72h-8v-8h8V72z M72,56v24h24V56H72z M88,72h-8v-8h8V72z"
         id="path7"
         style="fill:#ffffff" /></g></g><path
     fill-rule="evenodd"
     clip-rule="evenodd"
     fill="#546E7A"
     d="M127.043,61.445C124.75,67.781,118.734,72,112,72v40  c0,8.836-7.164,16-16,16h-8v-8h8c4.41,0,8-3.59,8-8V72v-8h8c3.355,0,6.379-2.121,7.52-5.277c1.145-3.156,0.18-6.723-2.398-8.871  l-48-40C67.688,8.656,65.871,8,64,8s-3.688,0.656-5.117,1.852l-7.102,5.914l-8.195,6.828l-4.258-9.777C38.051,9.891,35.176,8,32,8  c-4.414,0-8,3.59-8,8v19.172v3.746l-2.879,2.398l-10.242,8.535C8.301,52,7.336,55.566,8.48,58.723C9.621,61.879,12.645,64,16,64h8v8  v40c0,4.41,3.586,8,8,8h8v8h-8c-8.836,0-16-7.164-16-16V72C9.266,72,3.25,67.781,0.957,61.445  c-2.293-6.332-0.375-13.426,4.801-17.738L16,35.172V16c0-8.836,7.164-16,16-16c6.566,0,12.195,3.965,14.66,9.621l7.098-5.914  C56.723,1.234,60.363,0,64,0s7.277,1.234,10.242,3.707l48,40C127.418,48.02,129.336,55.113,127.043,61.445z"
     id="path9"
     style="fill:#ffffff" /></svg>